# xmcd
#
# Track frame offsets:
#	150
#	10690
#	23290
#	34885
#	47067
#	60247
#	71242
#	82917
#	94772
#	106457
#	119430
#	131182
#
# Disc length: 1924 seconds
#
# Revision: 0
# Processed by: cddbd v1.5.1PL0 Copyright (c) Steve Scherf et al.
# Submitted via: dBpowerAMP V4.0
#
DISCID=9407820c
DTITLE=roy acuff - the great roy acuff
DYEAR=1900
DGENRE=
TTITLE0=sunshine special
TTITLE1=is it love or is it lies
TTITLE2=i lcosed my heart's door
TTITLE3=don't judge your neighbor
TTITLE4=the thief upon the tree
TTITLE5=rushing around
TTITLE6=sweep around your own back door
TTITLE7=i'm planting a rose
TTITLE8=oh those tombs
TTITLE9=swamp lily
TTITLE10=please daddy forgive
TTITLE11=little moses
EXTD=
EXTT0=
EXTT1=
EXTT2=
EXTT3=
EXTT4=
EXTT5=
EXTT6=
EXTT7=
EXTT8=
EXTT9=
EXTT10=
EXTT11=
PLAYORDER=
